# Blender v2.79 (sub 0) OBJ File: ''
# www.blender.org
mtllib cubemap_cube.mtl
o Cube.002
v 0.250000 -0.250000 0.250000
v -0.250000 -0.250000 -0.250000
v 0.250000 -0.250000 -0.250000
v -0.250000 0.250000 -0.250000
v 0.250000 0.250000 0.250000
v 0.250000 0.250000 -0.250000
v -0.250000 -0.250000 0.250000
v -0.250000 0.250000 0.250000
vn 0.0000 -1.0000 -0.0000
vn 0.0000 1.0000 0.0000
vn 1.0000 -0.0000 0.0000
vn 0.0000 -0.0000 1.0000
vn -1.0000 0.0000 0.0000
vn 0.0000 0.0000 -1.0000
usemtl Material.001
s 1
f 1//1 2//1 3//1
f 4//2 5//2 6//2
f 6//3 1//3 3//3
f 5//4 7//4 1//4
f 7//5 4//5 2//5
f 3//6 4//6 6//6
f 1//1 7//1 2//1
f 4//2 8//2 5//2
f 6//3 5//3 1//3
f 5//4 8//4 7//4
f 7//5 8//5 4//5
f 3//6 2//6 4//6
o Cube.001
v -0.250000 -0.250000 -0.250000
v 0.250000 -0.250000 0.250000
v 0.250000 -0.250000 -0.250000
v 0.250000 0.250000 0.250000
v -0.250000 0.250000 -0.250000
v 0.250000 0.250000 -0.250000
v -0.250000 -0.250000 0.250000
v -0.250000 0.250000 0.250000
vn 0.0000 1.0000 0.0000
vn 0.0000 -1.0000 -0.0000
vn -1.0000 -0.0000 0.0000
vn 0.0000 0.0000 -1.0000
vn 1.0000 0.0000 0.0000
vn -0.0000 -0.0000 1.0000
usemtl Material.002
s off
f 9//7 10//7 11//7
f 12//8 13//8 14//8
f 10//9 14//9 11//9
f 15//10 12//10 10//10
f 15//11 13//11 16//11
f 13//12 11//12 14//12
f 9//7 15//7 10//7
f 12//8 16//8 13//8
f 10//9 12//9 14//9
f 15//10 16//10 12//10
f 15//11 9//11 13//11
f 13//12 9//12 11//12
