# Blender v2.79 (sub 0) OBJ File: ''
# www.blender.org
v -0.050000 -0.050000 -0.000696
v -0.050000 0.050000 -0.000696
v -0.050000 -0.050000 -0.100696
v 0.050000 -0.050000 -0.000696
v 0.050000 0.050000 -0.000696
v 0.050000 -0.050000 -0.100696
vn -1.0000 0.0000 0.0000
vn 1.0000 0.0000 0.0000
vn 0.0000 0.0000 1.0000
vn 0.0000 -1.0000 0.0000
vn 0.0000 0.7071 -0.7071
s off
f 1//1 2//1 3//1
f 6//2 5//2 4//2
f 5//3 1//3 4//3
f 6//4 1//4 3//4
f 3//5 5//5 6//5
f 5//3 2//3 1//3
f 6//4 4//4 1//4
f 3//5 2//5 5//5
